<?xml version="1.0" standalone="no"?>
<!DOCTYPE svg PUBLIC "-//W3C//DTD SVG 20010904//EN"
 "http://www.w3.org/TR/2001/REC-SVG-20010904/DTD/svg10.dtd">
<svg version="1.0" xmlns="http://www.w3.org/2000/svg"
 width="568.000000pt" height="568.000000pt" viewBox="0 0 568.000000 568.000000"
 preserveAspectRatio="xMidYMid meet">
<metadata>
Created by potrace 1.11, written by Peter Selinger 2001-2013
</metadata>
<g transform="translate(0.000000,568.000000) scale(0.100000,-0.100000)"
fill="#000000" stroke="none">
<path d="M490 3706 c0 -9 9 -17 20 -17 26 -2 26 -2 85 -19 33 -9 63 -28 91
-55 69 -70 69 -65 69 -775 0 -583 -2 -629 -19 -679 -31 -91 -104 -144 -211
-155 -17 -2 -31 -10 -33 -19 -3 -13 59 -15 565 -12 312 1 579 5 593 9 14 3 45
8 69 11 356 43 602 358 602 775 1 133 -6 182 -38 299 -79 284 -275 503 -533
593 -142 49 -155 50 -722 55 -487 4 -538 3 -538 -11z m910 -41 c89 -16 221
-73 280 -122 91 -74 162 -158 213 -253 39 -71 92 -221 101 -285 4 -23 9 -52
12 -65 7 -35 7 -248 0 -290 -35 -196 -91 -330 -185 -443 -119 -143 -247 -199
-451 -199 -219 1 -320 97 -329 312 -2 36 -4 357 -5 714 l-1 648 165 -5 c91 -3
181 -8 200 -12z"/>
<path d="M2560 3638 c-2 -278 2 -450 10 -478 7 -24 158 -231 190 -260 6 -6 48
-58 415 -520 163 -206 306 -383 317 -392 18 -16 49 -18 322 -18 l301 1 -52 19
c-146 52 -214 113 -423 379 -80 100 -182 229 -226 285 -45 55 -242 304 -439
551 -197 248 -371 465 -387 483 l-28 33 0 -83z"/>
<path d="M3630 3685 c0 -16 0 -140 0 -275 1 -241 1 -245 25 -286 14 -24 31
-49 38 -56 7 -7 73 -89 147 -183 74 -93 140 -177 147 -185 7 -8 134 -168 283
-355 149 -187 280 -348 292 -357 18 -16 49 -18 322 -18 l301 1 -59 20 c-65 22
-141 68 -201 120 -34 30 -194 227 -663 819 -68 85 -132 166 -143 180 -11 14
-32 40 -47 59 -15 19 -69 86 -119 150 -51 64 -123 154 -160 201 -83 104 -100
125 -135 164 l-27 31 -1 -30z"/>
<path d="M2532 2388 c-27 -130 -26 -127 -52 -179 -50 -99 -119 -158 -219 -189
-34 -11 -57 -24 -59 -34 -3 -14 30 -16 352 -16 195 0 357 4 360 9 8 13 -13 26
-67 41 -140 38 -233 167 -273 377 -9 48 -17 89 -18 91 -2 1 -12 -44 -24 -100z"/>
</g>
</svg>
